<svg fill="url(#bg)" stroke="currentColor" xmlns="http://www.w3.org/2000/svg" viewBox="0 0 512 512">
  <defs>
    <linearGradient id="bg" x1="0" y1="0" x2="1" y2="1">
      <stop offset="0%" stop-color="#7c3aed"/>
      <stop offset="100%" stop-color="#ec4899"/>
    </linearGradient>
    <filter id="shadow">
      <feDropShadow dx="0" dy="8" stdDeviation="8" flood-opacity=".15"/>
    </filter>
  </defs>

  <rect width="512" height="512" rx="96" fill="url(#bg)"/>

  <rect x="96" y="96" width="320" height="320" rx="40" fill="#fff" filter="url(#shadow)"/>

  
  <rect x="136" y="136" width="72" height="72" rx="8" fill="#1e1e2e"/>
  <rect x="148" y="148" width="48" height="48" rx="4" fill="#fff"/>
  <rect x="160" y="160" width="24" height="24" rx="2" fill="#1e1e2e"/>

  
  <rect x="304" y="136" width="72" height="72" rx="8" fill="#1e1e2e"/>
  <rect x="316" y="148" width="48" height="48" rx="4" fill="#fff"/>
  <rect x="328" y="160" width="24" height="24" rx="2" fill="#1e1e2e"/>

  
  <rect x="136" y="304" width="72" height="72" rx="8" fill="#1e1e2e"/>
  <rect x="148" y="316" width="48" height="48" rx="4" fill="#fff"/>
  <rect x="160" y="328" width="24" height="24" rx="2" fill="#1e1e2e"/>

  
  <rect x="178" y="210" width="136" height="10" rx="5" fill="#475569"/>
  <rect x="178" y="240" width="108" height="10" rx="5" fill="#475569"/>
  <rect x="178" y="270" width="124" height="10" rx="5" fill="#475569"/>
  <rect x="178" y="300" width="96" height="10" rx="5" fill="#475569"/>
</svg>

